<svg xmlns="http://www.w3.org/2000/svg" width="1920" height="1080" fill="none" viewBox="0 0 1920 1080"><path fill="#f8f8f8" d="M0 0h1920v1080H0z"/><path fill="#262626" d="M80.79 69.14h-8.085V90h-4.2V69.14h-8.05v-3.955H80.79zm5.353 27.755h-4.34l4.095-8.925-7.28-15.015h4.585l4.9 10.78 4.585-10.78h4.305zm17.149-.245h-4.025V72.955h3.92v2.31c.84-1.47 2.8-2.695 5.425-2.695 5.04 0 7.875 3.85 7.875 8.89 0 5.11-3.115 8.96-8.015 8.96-2.45 0-4.305-1.05-5.18-2.345zm9.135-15.19c0-3.185-1.855-5.285-4.585-5.285-2.66 0-4.585 2.1-4.585 5.285 0 3.255 1.925 5.355 4.585 5.355 2.695 0 4.585-2.1 4.585-5.355m14.753 5.425c2.52 0 4.76-1.855 4.76-5.425 0-3.535-2.24-5.355-4.76-5.355-2.485 0-4.76 1.82-4.76 5.355s2.275 5.425 4.76 5.425m0-14.455c5.11 0 8.855 3.815 8.855 9.03 0 5.25-3.745 9.065-8.855 9.065-5.075 0-8.82-3.815-8.82-9.065 0-5.215 3.745-9.03 8.82-9.03m10.854 18.515 3.745-.98c.28 2.1 1.925 3.675 4.27 3.675 3.22 0 4.83-1.645 4.83-5.11v-1.785c-.735 1.33-2.45 2.485-4.935 2.485-4.55 0-7.875-3.5-7.875-8.295 0-4.55 3.185-8.295 7.875-8.295 2.66 0 4.305 1.085 5.04 2.485v-2.17h3.92V88.39c0 4.55-2.345 8.785-8.75 8.785-4.515 0-7.665-2.8-8.12-6.23m8.575-5.18c2.59 0 4.375-1.89 4.375-4.83 0-2.905-1.855-4.795-4.375-4.795-2.59 0-4.445 1.89-4.445 4.795 0 2.975 1.785 4.83 4.445 4.83m22.535-12.915v4.13a9 9 0 0 0-1.33-.105c-3.15 0-4.585 1.82-4.585 5.005V90h-4.06V72.955h3.955v2.73c.805-1.855 2.695-2.94 4.935-2.94.49 0 .91.07 1.085.105m1.673 12.53c0-3.045 2.24-4.725 5.145-5.145l4.375-.665c.98-.14 1.26-.63 1.26-1.225 0-1.435-.98-2.59-3.22-2.59-2.135 0-3.325 1.365-3.5 3.08l-3.71-.84c.315-2.94 2.975-5.565 7.175-5.565 5.25 0 7.245 2.975 7.245 6.37v8.47c0 1.54.175 2.555.21 2.73h-3.78c-.035-.105-.175-.805-.175-2.17-.805 1.295-2.485 2.695-5.25 2.695-3.57 0-5.775-2.45-5.775-5.145m6.545 1.96c2.275 0 4.235-1.085 4.235-4.41v-.77l-4.445.665c-1.26.21-2.275.91-2.275 2.31 0 1.155.875 2.205 2.485 2.205m16.458 9.31h-4.025V72.955h3.92v2.31c.84-1.47 2.8-2.695 5.425-2.695 5.04 0 7.875 3.85 7.875 8.89 0 5.11-3.115 8.96-8.015 8.96-2.45 0-4.305-1.05-5.18-2.345zm9.135-15.19c0-3.185-1.855-5.285-4.585-5.285-2.66 0-4.585 2.1-4.585 5.285 0 3.255 1.925 5.355 4.585 5.355 2.695 0 4.585-2.1 4.585-5.355m11.323-1.47V90h-4.06V64.66h4.06v9.94c1.155-1.505 3.08-2.135 4.865-2.135 4.2 0 6.23 3.01 6.23 6.755V90h-4.06V79.92c0-2.1-.945-3.78-3.5-3.78-2.24 0-3.465 1.68-3.535 3.85M233.641 90h-4.025V72.955h4.025zm-4.655-23.03c0-1.47 1.19-2.66 2.625-2.66 1.47 0 2.66 1.19 2.66 2.66s-1.19 2.625-2.66 2.625a2.62 2.62 0 0 1-2.625-2.625m12.028 12.635h8.365c-.07-1.995-1.4-3.78-4.2-3.78-2.555 0-4.025 1.96-4.165 3.78m8.82 4.445 3.43 1.085c-.91 2.975-3.605 5.39-7.7 5.39-4.62 0-8.715-3.36-8.715-9.135 0-5.39 3.99-8.96 8.295-8.96 5.25 0 8.33 3.465 8.33 8.855 0 .665-.07 1.225-.105 1.295h-12.46c.105 2.59 2.135 4.445 4.655 4.445 2.45 0 3.71-1.295 4.27-2.975m18.826 12.6h-4.025V72.955h3.92v2.31c.84-1.47 2.8-2.695 5.425-2.695 5.04 0 7.875 3.85 7.875 8.89 0 5.11-3.115 8.96-8.015 8.96-2.45 0-4.305-1.05-5.18-2.345zm9.135-15.19c0-3.185-1.855-5.285-4.585-5.285-2.66 0-4.585 2.1-4.585 5.285 0 3.255 1.925 5.355 4.585 5.355 2.695 0 4.585-2.1 4.585-5.355m17.238-8.61v4.13a9 9 0 0 0-1.33-.105c-3.15 0-4.585 1.82-4.585 5.005V90h-4.06V72.955h3.955v2.73c.805-1.855 2.695-2.94 4.935-2.94.49 0 .91.07 1.085.105M301.747 90h-4.025V72.955h4.025zm-4.655-23.03c0-1.47 1.19-2.66 2.625-2.66 1.47 0 2.66 1.19 2.66 2.66s-1.19 2.625-2.66 2.625a2.62 2.62 0 0 1-2.625-2.625m13.253 13.195V90h-4.06V72.955h3.955v2.275c1.12-1.96 3.15-2.765 5.04-2.765 4.165 0 6.16 3.01 6.16 6.755V90h-4.06V79.92c0-2.1-.945-3.78-3.5-3.78-2.31 0-3.535 1.785-3.535 4.025m22.758-3.99c-2.485 0-4.69 1.855-4.69 5.285s2.205 5.355 4.76 5.355c2.66 0 3.885-1.855 4.27-3.15l3.57 1.295c-.805 2.66-3.36 5.565-7.84 5.565-5.005 0-8.82-3.885-8.82-9.065 0-5.25 3.815-9.03 8.715-9.03 4.585 0 7.105 2.87 7.805 5.6l-3.64 1.33c-.385-1.505-1.54-3.185-4.13-3.185M347.943 90h-4.025V72.955h4.025zm-4.655-23.03c0-1.47 1.19-2.66 2.625-2.66 1.47 0 2.66 1.19 2.66 2.66s-1.19 2.625-2.66 2.625a2.62 2.62 0 0 1-2.625-2.625m13.218 29.68h-4.025V72.955h3.92v2.31c.84-1.47 2.8-2.695 5.425-2.695 5.04 0 7.875 3.85 7.875 8.89 0 5.11-3.115 8.96-8.015 8.96-2.45 0-4.305-1.05-5.18-2.345zm9.135-15.19c0-3.185-1.855-5.285-4.585-5.285-2.66 0-4.585 2.1-4.585 5.285 0 3.255 1.925 5.355 4.585 5.355 2.695 0 4.585-2.1 4.585-5.355m6.213 3.92c0-3.045 2.24-4.725 5.145-5.145l4.375-.665c.98-.14 1.26-.63 1.26-1.225 0-1.435-.98-2.59-3.22-2.59-2.135 0-3.325 1.365-3.5 3.08l-3.71-.84c.315-2.94 2.975-5.565 7.175-5.565 5.25 0 7.245 2.975 7.245 6.37v8.47c0 1.54.175 2.555.21 2.73h-3.78c-.035-.105-.175-.805-.175-2.17-.805 1.295-2.485 2.695-5.25 2.695-3.57 0-5.775-2.45-5.775-5.145m6.545 1.96c2.275 0 4.235-1.085 4.235-4.41v-.77l-4.445.665c-1.26.21-2.275.91-2.275 2.31 0 1.155.875 2.205 2.485 2.205M394.892 90h-4.06V64.66h4.06zm7.372-10.395h8.365c-.07-1.995-1.4-3.78-4.2-3.78-2.555 0-4.025 1.96-4.165 3.78m8.82 4.445 3.43 1.085c-.91 2.975-3.605 5.39-7.7 5.39-4.62 0-8.715-3.36-8.715-9.135 0-5.39 3.99-8.96 8.295-8.96 5.25 0 8.33 3.465 8.33 8.855 0 .665-.07 1.225-.105 1.295h-12.46c.105 2.59 2.135 4.445 4.655 4.445 2.45 0 3.71-1.295 4.27-2.975M119.8 339.8l32.2 6.4q5.4 1.2 13.4 3.4 8 2 15.6 6.4 7.6 4.2 13 11.4 5.4 7 5.4 18 0 9.8-4.4 17.6-4.2 7.8-12.4 13.2-8 5.4-19.6 8.4t-26 3q-16 0-31.8-4-15.6-4-28.6-11.2l-6.4-3.6V381l14.2 8q1.2.8 2.4 1.4t2.4 1.4q10.4 5.8 22.8 9 12.4 3 25 3 17.2 0 27-4.8 9.8-5 9.8-13.6 0-5.6-6.2-9.2-6.2-3.8-20.6-6.8l-32.4-6.4q-23.6-5-34-14-10.4-9.2-10.4-24.6 0-11 4.8-18.6 5-7.8 12.8-12.8 9-5.8 20.4-8.2t22-2.4q15.2 0 29 5 14 4.8 27.8 13.4l-.6 28.4-12.4-7.8-2-1.2q-1-.8-2-1.4-9.4-5.8-19.2-9.2-9.6-3.4-20.6-3.4-5 0-12 .8-6.8.8-12.4 3.6-4.4 2-7.2 5.4-2.8 3.2-2.8 8.4 0 1.4.4 3.4.4 1.8 2.6 4 2.2 2 7 4 5 2 14 4M313.841 285h32.4l-58.8 73.4V425h-27v-66.6l-58.6-73.4h32.4l39.8 49.8zm90.248 54.8 32.2 6.4q5.4 1.2 13.4 3.4 8 2 15.6 6.4 7.6 4.2 13 11.4 5.4 7 5.4 18 0 9.8-4.4 17.6-4.2 7.8-12.4 13.2-8 5.4-19.6 8.4t-26 3q-16 0-31.8-4-15.6-4-28.6-11.2l-6.4-3.6V381l14.2 8q1.2.8 2.4 1.4t2.4 1.4q10.4 5.8 22.8 9 12.4 3 25 3 17.2 0 27-4.8 9.8-5 9.8-13.6 0-5.6-6.2-9.2-6.2-3.8-20.6-6.8l-32.4-6.4q-23.6-5-34-14-10.4-9.2-10.4-24.6 0-11 4.8-18.6 5-7.8 12.8-12.8 9-5.8 20.4-8.2t22-2.4q15.2 0 29 5 14 4.8 27.8 13.4l-.6 28.4-12.4-7.8-2-1.2q-1-.8-2-1.4-9.4-5.8-19.2-9.2-9.6-3.4-20.6-3.4-5 0-12 .8-6.8.8-12.4 3.6-4.4 2-7.2 5.4-2.8 3.2-2.8 8.4 0 1.4.4 3.4.4 1.8 2.6 4 2.2 2 7 4 5 2 14 4m92.002-54.8h116.4v23.2h-44.8V425h-27V308.2h-44.6zm136.518 140V285h103.6v23.2h-76.6v35.2h63.8v23.2h-63.8v35.2h76.6V425zm17.4-187.6h32.4l30.2 37.8-32.4-.2zM751.578 425V285h36.4l40.6 47.6 40.6-47.6h36.4v140h-28V299v16.8l-49 55.6-49-55.6V299v126zm169.31 0V285h103.602v23.2h-76.602v35.2h63.802v23.2h-63.802v35.2h76.602V425zM70 625V485h14v127.8h84V625zm123.969 0V485h14v140zm54.094-82.2h75.6q4.8 0 8.8-1.8 4.2-1.8 7.2-4.8 3.2-3.2 5-7.2 1.8-4.2 1.8-9t-1.8-8.8q-1.8-4.2-5-7.2-3-3.2-7.2-5-4-1.8-8.8-1.8h-75.6zm0 70h85q6 0 11.2-2.2a28.7 28.7 0 0 0 9.2-6.2 28.7 28.7 0 0 0 6.2-9.2q2.2-5.2 2.2-11.2t-2.2-11.2q-2.2-5.4-6.2-9.2a28.7 28.7 0 0 0-9.2-6.2q-5.2-2.4-11.2-2.4h-85zm-14 12.2V485h89.6q7.2 0 13.6 2.8t11.2 7.6q4.8 4.6 7.4 11 2.8 6.4 2.8 13.6 0 7.6-3 14.2t-8 11.4q11.6 4.4 19 14.8 7.4 10.2 7.4 23.6 0 8.4-3.2 16-3.2 7.4-8.8 13t-13.2 8.8q-7.4 3.2-15.8 3.2zm174.156-82.2h75.6q4.8 0 8.8-1.8 4.2-1.8 7.2-4.8 3.2-3.2 5-7.2 1.8-4.2 1.8-9t-1.8-8.8q-1.8-4.2-5-7.2-3-3.2-7.2-5-4-1.8-8.8-1.8h-75.6zm-14 82.2V485h89.6q7.2 0 13.6 2.8t11.2 7.6q4.8 4.6 7.4 11 2.8 6.4 2.8 13.6t-2.8 13.6q-2.6 6.4-7.4 11.2-4.8 4.6-11.2 7.4t-13.6 2.8h-3.6l40 70h-15l-40-70h-57v70zm146.094 0V485h98v12.2h-84V549h70v12h-70v51.8h84V625z"/><path fill="#fe481b" d="M70.46 779H61.7v-14.18h8.76v2.24H64.1v3.76h5.76V773H64.1v3.76h6.36zm5 0h-2.32v-14.48h2.32zm5.293 0h-2.3v-9.74h2.22v1.24c.56-1 1.78-1.52 2.88-1.52 1.28 0 2.4.58 2.92 1.72.76-1.28 1.9-1.72 3.16-1.72 1.76 0 3.44 1.12 3.44 3.7V779h-2.24v-5.94c0-1.14-.58-2-1.88-2-1.22 0-2.02.96-2.02 2.16V779h-2.28v-5.94c0-1.12-.56-2-1.88-2-1.24 0-2.02.92-2.02 2.16zm14.561-2.64c0-1.74 1.28-2.7 2.94-2.94l2.5-.38c.56-.08.72-.36.72-.7 0-.82-.56-1.48-1.84-1.48-1.22 0-1.9.78-2 1.76l-2.12-.48c.18-1.68 1.7-3.18 4.1-3.18 3 0 4.14 1.7 4.14 3.64v4.84c0 .88.1 1.46.12 1.56h-2.16c-.02-.06-.1-.46-.1-1.24-.46.74-1.42 1.54-3 1.54-2.04 0-3.3-1.4-3.3-2.94m3.74 1.12c1.3 0 2.42-.62 2.42-2.52v-.44l-2.54.38c-.72.12-1.3.52-1.3 1.32 0 .66.5 1.26 1.42 1.26m11.606-1.12 2.02-.56c.08.88.74 1.66 1.98 1.66.96 0 1.46-.52 1.46-1.12 0-.52-.36-.92-1.14-1.08l-1.44-.32c-1.72-.38-2.62-1.5-2.62-2.84 0-1.7 1.56-3.14 3.58-3.14 2.72 0 3.6 1.76 3.76 2.72l-1.96.56c-.08-.56-.5-1.46-1.8-1.46-.82 0-1.4.52-1.4 1.12 0 .52.38.9.98 1.02l1.48.3c1.84.4 2.8 1.52 2.8 2.96 0 1.48-1.2 3.12-3.68 3.12-2.82 0-3.9-1.84-4.02-2.94m9.263 0c0-1.74 1.28-2.7 2.94-2.94l2.5-.38c.56-.08.72-.36.72-.7 0-.82-.56-1.48-1.84-1.48-1.22 0-1.9.78-2 1.76l-2.12-.48c.18-1.68 1.7-3.18 4.1-3.18 3 0 4.14 1.7 4.14 3.64v4.84c0 .88.1 1.46.12 1.56h-2.16c-.02-.06-.1-.46-.1-1.24-.46.74-1.42 1.54-3 1.54-2.04 0-3.3-1.4-3.3-2.94m3.74 1.12c1.3 0 2.42-.62 2.42-2.52v-.44l-2.54.38c-.72.12-1.3.52-1.3 1.32 0 .66.5 1.26 1.42 1.26m9.825-4.1V779h-2.32v-9.74h2.26v1.3c.64-1.12 1.8-1.58 2.88-1.58 2.38 0 3.52 1.72 3.52 3.86V779h-2.32v-5.76c0-1.2-.54-2.16-2-2.16-1.32 0-2.02 1.02-2.02 2.3m8.304 2.98 2.02-.56c.08.88.74 1.66 1.98 1.66.96 0 1.46-.52 1.46-1.12 0-.52-.36-.92-1.14-1.08l-1.44-.32c-1.72-.38-2.62-1.5-2.62-2.84 0-1.7 1.56-3.14 3.58-3.14 2.72 0 3.6 1.76 3.76 2.72l-1.96.56c-.08-.56-.5-1.46-1.8-1.46-.82 0-1.4.52-1.4 1.12 0 .52.38.9.98 1.02l1.48.3c1.84.4 2.8 1.52 2.8 2.96 0 1.48-1.2 3.12-3.68 3.12-2.82 0-3.9-1.84-4.02-2.94m17.222 2.64h-2.26v-14.48h2.28v5.94c.44-.76 1.56-1.46 3.06-1.46 2.92 0 4.5 2.22 4.5 5.08 0 2.94-1.74 5.16-4.58 5.16-1.38 0-2.44-.6-3-1.54zm5.24-4.9c0-1.94-1.08-3.04-2.62-3.04-1.48 0-2.62 1.1-2.62 3.04 0 1.92 1.14 3.08 2.62 3.08 1.52 0 2.62-1.16 2.62-3.08m8.85 3.12c1.44 0 2.72-1.06 2.72-3.1 0-2.02-1.28-3.06-2.72-3.06-1.42 0-2.72 1.04-2.72 3.06s1.3 3.1 2.72 3.1m0-8.26c2.92 0 5.06 2.18 5.06 5.16 0 3-2.14 5.18-5.06 5.18-2.9 0-5.04-2.18-5.04-5.18 0-2.98 2.14-5.16 5.04-5.16m9.622 10.04h-2.32v-14.48h2.32zm4.553-4.9c0 1.86 1.04 3.1 2.62 3.1 1.52 0 2.58-1.26 2.58-3.12s-1.04-3.02-2.56-3.02-2.64 1.18-2.64 3.04m7.44-9.58v12.7c0 .88.08 1.62.1 1.78h-2.22c-.04-.22-.1-.86-.1-1.26-.46.82-1.48 1.5-2.86 1.5-2.8 0-4.68-2.2-4.68-5.14 0-2.8 1.9-5.1 4.64-5.1 1.7 0 2.56.78 2.86 1.4v-5.88z"/><path fill="#262626" d="M70.56 808.92h4.98l-2.16-4.44h-.66zM61.5 822l8.4-21h6.3l8.4 21h-4.2l-4.2-9.6h-6.3l-4.2 9.6zm29.596-13.08h9.27q.45 0 .81-.15.39-.18.66-.48.27-.33.42-.72.18-.39.18-.87 0-.45-.18-.84-.15-.42-.42-.72t-.66-.48q-.36-.18-.81-.18h-9.27zm0 9.6h10.56q.6 0 1.11-.24.54-.24.93-.66t.63-.96q.24-.57.24-1.2t-.24-1.17a3.4 3.4 0 0 0-.63-.99q-.39-.42-.93-.66-.51-.24-1.11-.24h-10.56zm-4.05 3.48v-21h13.32q1.23 0 2.28.45 1.08.45 1.86 1.23.81.78 1.26 1.83.48 1.02.48 2.19 0 .9-.27 1.71t-.78 1.53q1.41.87 2.28 2.34.87 1.44.87 3.18 0 1.35-.54 2.55-.51 1.2-1.44 2.1-.9.87-2.13 1.38-1.2.51-2.58.51zm42.406-7.59h4.2q-.03.09-.15.39a24 24 0 0 1-.45 1.23q-.09.3-.12.39-1.23 2.79-3.72 4.38-2.49 1.56-5.97 1.56-3.6 0-6.09-1.65t-3.66-4.44q-.45-1.08-.69-2.28-.21-1.2-.21-2.52t.21-2.52q.24-1.2.69-2.28 1.17-2.79 3.66-4.44t6.09-1.65q3.48 0 5.97 1.59 2.49 1.56 3.72 4.38.03.09.12.39.12.27.24.6t.21.63q.12.27.15.39h-4.2l-.33-.75q-.12-.3-.18-.42-.87-1.59-2.34-2.46t-3.36-.87q-2.22 0-3.69 1.05-1.44 1.02-2.19 2.67-.36.84-.54 1.77t-.18 1.92q0 1.02.18 1.95t.54 1.74q.75 1.65 2.19 2.7 1.47 1.02 3.69 1.02 1.89 0 3.36-.87t2.34-2.46q.06-.12.18-.39.12-.3.33-.75m12.472 4.11h6.6q3.33 0 4.95-1.8 1.65-1.8 1.65-5.22t-1.65-5.22q-1.62-1.8-4.95-1.8h-6.6zm-4.05 3.48v-21h10.65q2.94 0 4.95.87 2.04.84 3.3 2.28t1.83 3.36q.57 1.89.57 3.99t-.57 4.02a8.9 8.9 0 0 1-1.83 3.33q-1.26 1.44-3.3 2.31-2.01.84-4.95.84zm25.517 0v-21h15.54v3.48h-11.49v5.28h9.57v3.48h-9.57v5.28h11.49V822zm19.803-21h15.54v3.48h-11.49v5.28h9.57v3.48h-9.57V822h-4.05zm27.484 12.24v-3.48h11.37V822h-3.99v-1.59q-1.26.96-2.85 1.47-1.56.51-3.45.51-3.51 0-5.91-1.65-2.37-1.68-3.48-4.41-.45-1.08-.69-2.28-.21-1.23-.21-2.55t.21-2.52q.24-1.23.69-2.31 1.11-2.73 3.48-4.38 2.4-1.68 5.91-1.68 3.3 0 5.67 1.53 2.4 1.53 3.6 4.23.12.27.3.84.21.54.48 1.35h-4.14q-.21-.51-.36-.84-.15-.36-.24-.51-.81-1.5-2.19-2.31t-3.12-.81q-1.26 0-2.25.39t-1.74 1.05-1.26 1.56-.75 1.95q-.18.57-.24 1.2t-.06 1.26q0 .96.15 1.89.18.9.51 1.74.69 1.65 2.07 2.73 1.41 1.05 3.57 1.05 1.2 0 2.22-.39t1.83-1.11q.81-.75 1.35-1.8t.78-2.37zM246.652 801h4.2v21h-4.2v-8.67h-14.7V822h-4.2v-21h4.2v8.67h14.7zm8.403 21v-21h4.2v21zm8.437-11.4h4.05v1.14q0 .45.03.69.06.69.21 1.32.15.6.39 1.14a5.45 5.45 0 0 0 2.22 2.52q1.53.9 3.75.9 2.19 0 3.66-.87t2.19-2.4q.39-.75.57-1.62.18-.9.18-1.92V801h4.05v10.5q0 1.47-.3 2.79-.27 1.29-.81 2.46a9.7 9.7 0 0 1-3.66 4.11q-2.43 1.53-5.88 1.53-3.51 0-6.03-1.59-2.52-1.62-3.69-4.44-.39-.9-.57-1.71-.18-.84-.27-1.71-.06-.57-.09-1.14zm25.517-9.6h4.05v9.48l7.53-9.45h4.86l-6.45 8.04 10.35 12.93h-4.86l-7.95-9.84-3.48 4.38V822h-4.05zm24.548 21v-21h4.2v17.37h11.55V822zm18.9 0v-21h5.46l6.09 7.14 6.09-7.14h5.46v21h-4.2v-18.9 2.52l-7.35 8.34-7.35-8.34v-2.52V822zm25.517 0v-21h5.64l15.12 18.9h-1.86V801h4.2v21h-5.64l-15.12-18.9h1.86V822zM72.18 851.91q1.44 0 2.64-.51 1.23-.54 2.1-1.5t1.35-2.31q.51-1.38.51-3.09t-.51-3.06q-.48-1.38-1.35-2.34a5.8 5.8 0 0 0-2.1-1.47q-1.2-.54-2.64-.54t-2.67.54q-1.2.51-2.1 1.47-.87.96-1.35 2.34-.48 1.35-.48 3.06t.48 3.09q.48 1.35 1.35 2.31.9.96 2.1 1.5 1.23.51 2.67.51m0 3.48q-2.4 0-4.38-.78a9.9 9.9 0 0 1-3.36-2.19q-1.38-1.44-2.16-3.45-.75-2.01-.75-4.47t.75-4.47q.78-2.01 2.16-3.42 1.41-1.44 3.36-2.22 1.98-.78 4.38-.78t4.35.78q1.98.78 3.36 2.22 1.41 1.41 2.16 3.42.78 2.01.78 4.47t-.78 4.47q-.75 2.01-2.16 3.45-1.38 1.41-3.36 2.19-1.95.78-4.35.78m14.866-.39v-21h13.32q1.23 0 2.28.45 1.08.45 1.86 1.23.81.78 1.26 1.83.48 1.02.48 2.19 0 1.2-.48 2.25-.45 1.02-1.26 1.8-.78.75-1.86 1.2-1.05.45-2.28.45h-9.27v9.6zm4.05-13.08h9.27q.45 0 .81-.15.39-.18.66-.48.27-.33.42-.72.18-.39.18-.87 0-.45-.18-.84-.15-.42-.42-.72t-.66-.48q-.36-.18-.81-.18h-9.27zm33.318 13.95-1.8-1.8q-.81.27-1.71.42-.87.12-1.86.12-3.33 0-5.67-1.47a9.4 9.4 0 0 1-3.54-3.96q-.51-1.11-.78-2.37-.27-1.29-.27-2.7t.27-2.67.78-2.4q1.2-2.49 3.54-3.96t5.67-1.47q1.86 0 3.39.48 1.56.48 2.79 1.35 1.23.84 2.1 2.07.9 1.2 1.41 2.7.3.9.45 1.89.15.96.15 2.01 0 2.52-.87 4.56-.84 2.04-2.4 3.45l1.05 1.05zm-7.89-7.92 2.7-2.7 4.2 4.23q.9-.9 1.41-2.25.54-1.38.54-3.12a9.1 9.1 0 0 0-.48-2.94 6.43 6.43 0 0 0-2.1-2.97q-1.44-1.17-3.75-1.17-2.28 0-3.75 1.17-1.44 1.17-2.07 2.97-.24.69-.36 1.44-.12.72-.12 1.5t.12 1.53q.12.72.36 1.41.63 1.8 2.07 2.97 1.47 1.17 3.75 1.17h.33q.18-.03.33-.03zm21.123-6.03h9.27q.45 0 .81-.15.39-.18.66-.48.27-.33.42-.72.18-.39.18-.87 0-.45-.18-.84-.15-.42-.42-.72t-.66-.48q-.36-.18-.81-.18h-9.27zm-4.05 13.08v-21h13.32q1.23 0 2.28.45 1.08.45 1.86 1.23.81.78 1.26 1.83.48 1.02.48 2.19 0 1.2-.48 2.25-.45 1.02-1.26 1.8-.78.75-1.86 1.2-1.05.45-2.28.45h-.48l1.41-.51 5.76 10.11h-4.41l-5.49-9.6h-6.06v9.6zm30.642-12.78 4.83.96q.81.18 2.01.51 1.2.3 2.34.96 1.14.63 1.95 1.71.81 1.05.81 2.7 0 1.47-.66 2.64-.63 1.17-1.86 1.98-1.2.81-2.94 1.26t-3.9.45q-2.4 0-4.77-.6-2.34-.6-4.29-1.68l-.96-.54v-4.17l2.13 1.2q.18.12.36.21t.36.21q1.56.87 3.42 1.35 1.86.45 3.75.45 2.58 0 4.05-.72 1.47-.75 1.47-2.04 0-.84-.93-1.38-.93-.57-3.09-1.02l-4.86-.96q-3.54-.75-5.1-2.1-1.56-1.38-1.56-3.69 0-1.65.72-2.79a6.3 6.3 0 0 1 1.92-1.92q1.35-.87 3.06-1.23t3.3-.36q2.28 0 4.35.75 2.1.72 4.17 2.01l-.09 4.26-1.86-1.17-.3-.18q-.15-.12-.3-.21-1.41-.87-2.88-1.38a9.2 9.2 0 0 0-3.09-.51q-.75 0-1.8.12-1.02.12-1.86.54-.66.3-1.08.81-.42.48-.42 1.26 0 .21.06.51.06.27.39.6.33.3 1.05.6.75.3 2.1.6m15-8.22h17.46v3.48h-6.72V855h-4.05v-17.52h-6.69zm21.708 0h3.99v10.5q0 .99.18 1.92.18.9.54 1.74.72 1.65 2.13 2.7 1.44 1.05 3.63 1.05 2.16 0 3.57-1.05 1.44-1.05 2.16-2.7.36-.84.54-1.74.18-.93.18-1.92V834h3.99v10.5q0 1.05-.15 2.01-.12.96-.39 1.86a10.7 10.7 0 0 1-1.41 2.88q-.87 1.29-2.13 2.22-1.26.9-2.88 1.41-1.59.51-3.48.51-1.92 0-3.54-.51-1.59-.51-2.85-1.41a9.5 9.5 0 0 1-2.16-2.22q-.87-1.29-1.38-2.88-.27-.9-.42-1.86-.12-.96-.12-2.01zm41.215 0h4.2l-8.4 21h-3.48l-8.4-21h4.2l5.94 14.85zm8.352 0h4.2v18.9-2.52l7.35-8.34 7.35 8.34v2.52V834h4.2v21h-5.46l-6.09-7.14-6.09 7.14h-5.46zm44.104 0h4.89l-8.4 10.5 8.4 10.5h-4.89l-5.94-7.47-5.97 7.47h-4.89l8.4-10.5-8.4-10.5h4.89l5.97 7.47zm25.927 0h4.86l-8.82 11.01V855h-4.05v-9.99l-8.79-11.01h4.86l5.97 7.47zm8.407 21v-4.53l17.64-14.13-.6.48-.87.72-.24.21h-15.93V834h21.3v4.53l-18 14.4v-1.68h18V855zM61.53 888v-21h4.05v21zm8.29 0v-5.94q0-1.65.78-2.7.81-1.08 1.92-1.71 1.14-.66 2.34-.96 1.2-.33 1.98-.51l4.74-.96q.93-.21 1.53-.39.63-.21 1.02-.42.42-.21.6-.42.21-.21.3-.42.06-.12.06-.3.03-.18.03-.36 0-.75-.42-1.26-.39-.51-1.02-.81-.84-.42-1.86-.54t-1.74-.12q-1.62 0-3.06.51-1.41.51-2.79 1.38-.18.12-.39.27l-.42.24-1.65 1.05-.06-4.26.42-.24q.24-.15.45-.3a20 20 0 0 1 3.54-1.62q1.77-.6 3.96-.6 1.71 0 3.51.45 1.83.42 3.18 1.47.99.75 1.56 1.83.6 1.05.6 2.55 0 2.31-1.53 3.69-1.53 1.35-5.04 2.1l-4.74.96q-2.07.45-2.97 1.02-.9.54-.93 1.38v2.46h14.25V888zm23.348 0v-3.48h10.77q.6 0 1.11-.24.54-.24.93-.66.42-.42.63-.96.24-.57.24-1.2t-.24-1.17q-.21-.57-.63-.99-.39-.42-.93-.66-.51-.24-1.11-.24h-8.85v-3.48h9.69q.42 0 .78-.15.39-.18.66-.48.3-.33.45-.72.18-.39.18-.87 0-.45-.18-.84-.15-.42-.45-.72-.27-.3-.66-.48-.36-.18-.78-.18h-11.61V867h11.61q1.2 0 2.25.45 1.08.45 1.86 1.23.81.78 1.26 1.83.48 1.02.48 2.19 0 1.26-.51 2.34t-1.41 1.86q.93.9 1.41 2.07.51 1.14.51 2.49t-.54 2.55q-.51 1.2-1.41 2.1-.9.87-2.13 1.38t-2.61.51zm29.358-7.44h5.85v-7.32zm-7.65 3.48 13.62-17.04h3.93v13.56h2.55v3.48h-2.55V888h-4.05v-3.96zm24.345 3.96v-3.48h12.66q.6 0 1.11-.24.54-.24.93-.66t.63-.96q.24-.57.24-1.2t-.24-1.17a3.4 3.4 0 0 0-.63-.99q-.39-.42-.93-.66-.51-.24-1.11-.24h-12.66V867h17.46v3.48h-13.41v4.44h8.61q.45 0 .9.06t.87.18q1.08.3 1.98.9.9.57 1.53 1.41.66.84 1.02 1.86.39 1.02.39 2.13 0 1.35-.54 2.55-.51 1.2-1.44 2.1-.9.87-2.13 1.38-1.2.51-2.58.51zm41.672-15.36q-.09-.09-.48-.3-.36-.24-.69-.45-.15-.09-.3-.15-.12-.09-.15-.12-1.32-.75-2.4-1.08t-2.31-.33q-1.77 0-3.3.63t-2.67 1.74q-.96.99-1.5 2.28-.54 1.26-.54 2.82v.42q0 .18.03.39-.39-.18-.78-.33l-.78-.36 1.08-.63q.24-.12.45-.24l.48-.24q.66-.36 1.26-.63.6-.3 1.2-.54 1.2-.45 2.43-.63 1.26-.21 2.97-.21 1.68 0 3.54.54 1.86.51 3.3 1.59 1.08.84 1.74 1.98.66 1.11.66 2.61 0 1.47-.66 2.61a6.8 6.8 0 0 1-1.68 1.95q-.87.69-1.95 1.17-1.05.48-2.19.78-.9.24-1.8.36t-1.71.12q-1.92 0-3.69-.51-1.77-.54-3.27-1.56-1.47-1.02-2.55-2.49-1.05-1.47-1.5-3.42l-.15-.93q-.09-.45-.12-.9t-.03-.87q0-1.29.27-2.46.3-1.2.78-2.25.51-1.05 1.2-1.95.72-.9 1.59-1.65 1.59-1.32 3.6-2.04 2.01-.75 4.29-.75 1.08 0 2.01.15t1.77.45q.87.3 1.65.72.81.39 1.65.9.24.12.45.27l.42.24zm-14.01 7.47q.39 1.17 1.11 2.04.75.87 1.71 1.47.99.57 2.1.87a9.2 9.2 0 0 0 3.36.24q.57-.09 1.2-.21.72-.18 1.44-.42.72-.27 1.29-.66.6-.39.96-.87.36-.51.36-1.17 0-.36-.15-.69-.12-.33-.36-.6t-.57-.51q-.3-.24-.66-.42-.93-.48-2.01-.69t-1.77-.21q-1.41 0-2.4.18-.99.15-1.92.54-.48.18-.96.42-.45.24-.99.54-.18.09-.39.21-.18.09-.36.21-.21.09-.39.21l-.36.18zM190.449 867h19.56l-16.8 21h-4.86l14.01-17.52h-11.91zm28.232 7.92h5.37q.87 0 1.47-.63.6-.66.6-1.59t-.6-1.56q-.6-.66-1.47-.66h-5.37q-.84 0-1.47.66-.6.63-.6 1.56 0 .45.15.87.18.39.45.69.3.3.66.48.39.18.81.18m-1.26 9.6h7.92q.6 0 1.11-.24.54-.24.93-.66t.63-.96q.24-.57.24-1.2t-.24-1.17a3.4 3.4 0 0 0-.63-.99q-.39-.42-.93-.66-.51-.24-1.11-.24h-7.92q-.6 0-1.14.24-.51.24-.93.66-.39.42-.63.99a3.2 3.2 0 0 0-.21 1.17q0 .63.24 1.2.24.54.63.96.39.39.9.63.54.24 1.14.27m-3.66-8.52q-.09-.09-.24-.36-.15-.3-.3-.75t-.27-1.02-.12-1.17v-.45q.03-.24.09-.48.15-1.02.66-1.89.54-.87 1.29-1.5.78-.66 1.74-1.02a6 6 0 0 1 2.07-.36h5.37q1.23 0 2.28.45 1.08.45 1.86 1.23.81.78 1.26 1.83.48 1.02.48 2.19 0 .9-.27 1.71t-.78 1.53q1.41.87 2.28 2.34.87 1.44.87 3.18 0 1.35-.54 2.55-.51 1.2-1.44 2.1-.9.87-2.13 1.38-1.2.51-2.58.51h-8.4q-.21-.03-.45-.06a6.6 6.6 0 0 1-2.28-.72q-1.05-.57-1.83-1.44t-1.23-1.98q-.42-1.11-.42-2.34 0-1.68.84-3.12a7 7 0 0 1 2.19-2.34m25.696 6.36q.12.09.48.33.36.21.69.42.18.09.3.18l.18.09q1.32.75 2.4 1.08t2.31.33q1.74 0 3.27-.63 1.56-.63 2.67-1.74.96-.99 1.5-2.25.57-1.29.57-2.85 0-.21-.03-.39 0-.21-.03-.42.42.18.81.36.39.15.78.33l-1.08.63-.48.24q-.24.12-.45.24-.66.36-1.26.66-.6.27-1.2.51-1.2.45-2.46.66-1.23.18-2.94.18-1.68 0-3.54-.51-1.86-.54-3.3-1.62-1.08-.84-1.74-1.95-.66-1.14-.66-2.64 0-1.47.63-2.58.63-1.14 1.68-1.98.9-.69 1.95-1.17 1.08-.48 2.19-.78.93-.24 1.8-.36.9-.12 1.74-.12 1.89 0 3.66.54 1.8.51 3.27 1.53 1.5 1.02 2.55 2.49t1.53 3.42l.15.93q.06.45.09.9.06.45.06.87 0 1.29-.3 2.49-.27 1.17-.78 2.22-.48 1.05-1.2 1.95-.69.9-1.56 1.65-1.59 1.32-3.6 2.07-2.01.72-4.29.72-1.11 0-2.04-.15t-1.77-.45-1.65-.69q-.81-.42-1.65-.93l-.42-.24q-.21-.15-.45-.27zm14.01-7.47q-.39-1.17-1.14-2.04a7 7 0 0 0-1.68-1.47q-.96-.57-2.1-.87-1.11-.3-2.31-.3-.45 0-1.02.09-.57.06-1.2.18-.75.18-1.47.45-.72.24-1.29.63t-.93.9q-.36.48-.36 1.14 0 .36.12.69.15.33.36.6.24.27.54.51.33.24.72.42.93.48 1.98.69 1.08.21 1.8.21 1.41 0 2.4-.15.99-.18 1.92-.57.45-.18.93-.42t1.02-.54l.36-.18q.18-.12.39-.24l.36-.18q.18-.12.39-.21zm18.976 10.02q1.44 0 2.64-.51 1.23-.54 2.1-1.5t1.35-2.31q.51-1.38.51-3.09t-.51-3.06q-.48-1.38-1.35-2.34a5.8 5.8 0 0 0-2.1-1.47q-1.2-.54-2.64-.54t-2.67.54q-1.2.51-2.1 1.47-.87.96-1.35 2.34-.48 1.35-.48 3.06t.48 3.09q.48 1.35 1.35 2.31.9.96 2.1 1.5 1.23.51 2.67.51m0 3.48q-2.4 0-4.38-.78a9.9 9.9 0 0 1-3.36-2.19q-1.38-1.44-2.16-3.45-.75-2.01-.75-4.47t.75-4.47q.78-2.01 2.16-3.42 1.41-1.44 3.36-2.22 1.98-.78 4.38-.78t4.35.78q1.98.78 3.36 2.22 1.41 1.41 2.16 3.42.78 2.01.78 4.47t-.78 4.47q-.75 2.01-2.16 3.45-1.38 1.41-3.36 2.19-1.95.78-4.35.78m21.526-15.69q0 .93.78 1.59.78.63 1.89.63h2.88q1.11 0 1.89-.63.78-.66.78-1.59t-.78-1.56q-.78-.66-1.89-.66h-2.88q-1.11 0-1.89.66-.78.63-.78 1.56m6.99 13.02-6.9-7.2q-1.14.3-1.89 1.11t-.75 1.83v.33q.03.15.09.3.24 1.05 1.23 1.74 1.02.69 2.37.69h5.01q.12-.03.24-.03.27-.03.51-.09.27-.06.51-.15-.09.36-.21.75-.09.36-.21.72m-.99 2.28h-5.34q-.18-.03-.36-.03-1.29-.15-2.55-.63-1.23-.51-2.22-1.32a6.6 6.6 0 0 1-1.59-1.98q-.6-1.17-.6-2.58 0-1.77.99-3.21 1.02-1.47 2.73-2.34-.57-.69-.9-1.5-.3-.81-.3-1.71v-.33l.06-.36q.12-.93.57-1.77t1.17-1.5a6.8 6.8 0 0 1 1.65-1.11q.93-.45 2.01-.63l4.74.03q1.32.06 2.46.54t1.98 1.26q.87.75 1.35 1.77.51.99.51 2.1 0 1.02-.42 1.95-.39.93-1.11 1.68-.69.72-1.68 1.23-.96.51-2.1.72l-1.59.12 3.93 4.08q.09-.24.12-.48.06-.27.06-.54v-.15q0-.18-.03-.36v-.51h4.11l.03.51.03.51q0 1.08-.42 2.07t-1.14 1.83l2.52 2.64h-5.49l-.42-.45q-.63.21-1.35.33-.69.12-1.41.12m12.915 0v-21h15.54v3.48h-11.49v5.28h9.57v3.48h-9.57v5.28h11.49V888zm7.44-28.14h4.86l-4.5 5.64-4.89.03zM331.779 888v-21h15.54v3.48h-11.49v5.28h9.57v3.48h-9.57v5.28h11.49V888zm2.61-28.14h4.86l4.53 5.67-4.86-.03zm20.545 17.61q0 1.71.48 3.09.51 1.38 1.38 2.34.9.96 2.1 1.47t2.67.51q2.07 0 3.69-1.17t2.52-3.3h4.2q-.63 1.86-1.65 3.33t-2.34 2.49-2.97 1.59q-1.62.54-3.45.54-2.4 0-4.38-.78a9.9 9.9 0 0 1-3.36-2.19q-1.41-1.44-2.19-3.45-.75-2.01-.75-4.47t.75-4.47q.78-2.01 2.19-3.42 1.41-1.44 3.36-2.22 1.98-.78 4.38-.78 1.83 0 3.45.57a9.8 9.8 0 0 1 2.97 1.56q1.32 1.02 2.34 2.52 1.02 1.47 1.65 3.3h-4.2q-.9-2.13-2.52-3.3t-3.69-1.17q-1.47 0-2.67.51t-2.1 1.47q-.87.96-1.38 2.34-.48 1.38-.48 3.09m4.23 14.04.99-2.94q.57.18.84.27.3.12.33.12h-.06v.03a.2.2 0 0 1-.09.03v.03l1.05.87h-2.4v-3.54h3.39v1.38l-.54-.45-.27-.24-.24-.21h2.46l-.03 1.47-.03.72v.21q0 .12-.03.24-.09.54-.33.96-.24.45-.6.75l-.18.12q-.06.06-.15.12-.06.06-.15.09l-.18.12q-.27.12-.57.21t-.63.12q-.09.03-.21.03h-.21q-.12 0-.24-.03-.12 0-.3-.03-.3-.06-.72-.18-.39-.09-.9-.27M70.56 907.92h4.98l-2.16-4.44h-.66zM61.5 921l8.4-21h6.3l8.4 21h-4.2l-4.2-9.6h-6.3l-4.2 9.6zm5.28-28.14h4.86l4.53 5.67-4.86-.03zM85.669 900h3.99v10.5q0 .99.18 1.92.18.9.54 1.74.72 1.65 2.13 2.7 1.44 1.05 3.63 1.05 2.16 0 3.57-1.05 1.44-1.05 2.16-2.7.36-.84.54-1.74.18-.93.18-1.92V900h3.99v10.5q0 1.05-.15 2.01-.12.96-.39 1.86a10.7 10.7 0 0 1-1.41 2.88q-.87 1.29-2.13 2.22-1.26.9-2.88 1.41-1.59.51-3.48.51-1.92 0-3.54-.51-1.59-.51-2.85-1.41a9.5 9.5 0 0 1-2.16-2.22q-.87-1.29-1.38-2.88-.27-.9-.42-1.86-.12-.96-.12-2.01zm5.58-7.14h4.86l4.53 5.67-4.86-.03zm43.143 17.4q0 1.38-.33 2.73t-1.02 2.46q-.66 1.11-1.68 1.77-1.02.63-2.4.63-1.11 0-1.95-.51-.84-.54-1.17-1.38h-.24q-.6.75-1.62 1.32-.99.57-2.4.57-2.67 0-4.14-1.59-1.44-1.62-1.44-4.23 0-2.01.87-3.54.87-1.56 2.46-2.43 1.59-.9 3.75-.9 1.41 0 2.91.27 1.53.24 2.37.54l-.3 6.15q-.03.3-.03.63v.39q0 1.23.33 1.65.36.39.78.39.69 0 1.14-.66.45-.69.66-1.8.24-1.14.24-2.49 0-2.52-1.02-4.26a6.84 6.84 0 0 0-2.79-2.7q-1.74-.93-3.99-.93-2.37 0-4.17.75t-3.03 2.1-1.86 3.18q-.6 1.83-.6 3.99 0 2.7.96 4.59a6.6 6.6 0 0 0 2.85 2.82q1.89.96 4.62.96 1.74 0 3.63-.39t3.45-.96v2.82q-1.44.6-3.21.96t-3.75.36q-3.72 0-6.36-1.32t-4.05-3.78q-1.38-2.49-1.38-5.97 0-2.73.9-5.07t2.58-4.08q1.71-1.77 4.08-2.73 2.37-.99 5.31-.99 2.4 0 4.41.75 2.04.72 3.51 2.13 1.5 1.38 2.31 3.36.81 1.95.81 4.44m-15 1.83q0 1.65.69 2.37t1.83.72q1.5 0 2.1-1.08.63-1.11.75-2.88l.18-3.24q-.33-.06-.75-.09-.42-.06-.93-.06-1.41 0-2.28.63-.84.6-1.23 1.59-.36.96-.36 2.04m27.727-7.8-.33-.9-.36-.9-.33-.9v-2.94h4.05v2.94l-.33.9-.36.9-.33.9zm8.917 16.71v-21h7.89v3.48h-3.84v14.04h3.84V921zm15.092 0v-3.48h3.87v-14.04h-3.87V900h7.92v21zm12.152 0v-3.75h4.05V921zm0-5.64V900h4.05v15.36zm12.939-12.99v-3.75h4.05v1.53q0 1.08-.27 2.1-.24 1.02-.6 2.04h-3.27q.36-.99.57-1.65t.27-1.02q.03-.09.03-.15.03-.06.03-.15.09.06.24.21t.3.33q.18.15.3.3l.21.21zm-5.49 0v-3.75h4.05v1.53q0 1.08-.27 2.1-.24 1.02-.6 2.04h-3.27q.36-.99.57-1.65t.3-1.02v-.15q.03-.06.06-.15l.21.21q.15.15.3.33.18.15.33.3l.21.21zm11.41 18.63v-3.75h4.05V921z"/><path stroke="#000" d="M60 990h1830M60 690h1830M60 198h1830"/><path fill="#fe481b" d="M732.46 779h-8.76v-14.18h8.76v2.24h-6.36v3.76h5.76V773h-5.76v3.76h6.36zm5.001 0h-2.32v-14.48h2.32zm5.292 0h-2.3v-9.74h2.22v1.24c.56-1 1.78-1.52 2.88-1.52 1.28 0 2.4.58 2.92 1.72.76-1.28 1.9-1.72 3.16-1.72 1.76 0 3.44 1.12 3.44 3.7V779h-2.24v-5.94c0-1.14-.58-2-1.88-2-1.22 0-2.02.96-2.02 2.16V779h-2.28v-5.94c0-1.12-.56-2-1.88-2-1.24 0-2.02.92-2.02 2.16zm14.561-2.64c0-1.74 1.28-2.7 2.94-2.94l2.5-.38c.56-.08.72-.36.72-.7 0-.82-.56-1.48-1.84-1.48-1.22 0-1.9.78-2 1.76l-2.12-.48c.18-1.68 1.7-3.18 4.1-3.18 3 0 4.14 1.7 4.14 3.64v4.84c0 .88.1 1.46.12 1.56h-2.16c-.02-.06-.1-.46-.1-1.24-.46.74-1.42 1.54-3 1.54-2.04 0-3.3-1.4-3.3-2.94m3.74 1.12c1.3 0 2.42-.62 2.42-2.52v-.44l-2.54.38c-.72.12-1.3.52-1.3 1.32 0 .66.5 1.26 1.42 1.26m11.606-1.12 2.02-.56c.08.88.74 1.66 1.98 1.66.96 0 1.46-.52 1.46-1.12 0-.52-.36-.92-1.14-1.08l-1.44-.32c-1.72-.38-2.62-1.5-2.62-2.84 0-1.7 1.56-3.14 3.58-3.14 2.72 0 3.6 1.76 3.76 2.72l-1.96.56c-.08-.56-.5-1.46-1.8-1.46-.82 0-1.4.52-1.4 1.12 0 .52.38.9.98 1.02l1.48.3c1.84.4 2.8 1.52 2.8 2.96 0 1.48-1.2 3.12-3.68 3.12-2.82 0-3.9-1.84-4.02-2.94m9.263 0c0-1.74 1.28-2.7 2.94-2.94l2.5-.38c.56-.08.72-.36.72-.7 0-.82-.56-1.48-1.84-1.48-1.22 0-1.9.78-2 1.76l-2.12-.48c.18-1.68 1.7-3.18 4.1-3.18 3 0 4.14 1.7 4.14 3.64v4.84c0 .88.1 1.46.12 1.56h-2.16c-.02-.06-.1-.46-.1-1.24-.46.74-1.42 1.54-3 1.54-2.04 0-3.3-1.4-3.3-2.94m3.74 1.12c1.3 0 2.42-.62 2.42-2.52v-.44l-2.54.38c-.72.12-1.3.52-1.3 1.32 0 .66.5 1.26 1.42 1.26m9.825-4.1V779h-2.32v-9.74h2.26v1.3c.64-1.12 1.8-1.58 2.88-1.58 2.38 0 3.52 1.72 3.52 3.86V779h-2.32v-5.76c0-1.2-.54-2.16-2-2.16-1.32 0-2.02 1.02-2.02 2.3m8.304 2.98 2.02-.56c.08.88.74 1.66 1.98 1.66.96 0 1.46-.52 1.46-1.12 0-.52-.36-.92-1.14-1.08l-1.44-.32c-1.72-.38-2.62-1.5-2.62-2.84 0-1.7 1.56-3.14 3.58-3.14 2.72 0 3.6 1.76 3.76 2.72l-1.96.56c-.08-.56-.5-1.46-1.8-1.46-.82 0-1.4.52-1.4 1.12 0 .52.38.9.98 1.02l1.48.3c1.84.4 2.8 1.52 2.8 2.96 0 1.48-1.2 3.12-3.68 3.12-2.82 0-3.9-1.84-4.02-2.94m20.662-7.16v2.36c-.26-.04-.52-.06-.76-.06-1.8 0-2.62 1.04-2.62 2.86V779h-2.32v-9.74h2.26v1.56c.46-1.06 1.54-1.68 2.82-1.68.28 0 .52.04.62.06m3.459 3.86h4.78c-.04-1.14-.8-2.16-2.4-2.16-1.46 0-2.3 1.12-2.38 2.16m5.04 2.54 1.96.62c-.52 1.7-2.06 3.08-4.4 3.08-2.64 0-4.98-1.92-4.98-5.22 0-3.08 2.28-5.12 4.74-5.12 3 0 4.76 1.98 4.76 5.06 0 .38-.04.7-.06.74h-7.12c.06 1.48 1.22 2.54 2.66 2.54 1.4 0 2.12-.74 2.44-1.7m3.597 3.94 2.14-.56c.16 1.2 1.1 2.1 2.44 2.1 1.84 0 2.76-.94 2.76-2.92v-1.02c-.42.76-1.4 1.42-2.82 1.42-2.6 0-4.5-2-4.5-4.74 0-2.6 1.82-4.74 4.5-4.74 1.52 0 2.46.62 2.88 1.42v-1.24h2.24v8.82c0 2.6-1.34 5.02-5 5.02-2.58 0-4.38-1.6-4.64-3.56m4.9-2.96c1.48 0 2.5-1.08 2.5-2.76 0-1.66-1.06-2.74-2.5-2.74-1.48 0-2.54 1.08-2.54 2.74 0 1.7 1.02 2.76 2.54 2.76m13.82 1.34c-.48.88-1.62 1.36-2.76 1.36-2.32 0-3.68-1.72-3.68-3.88v-6.14h2.32v5.72c0 1.2.56 2.22 1.96 2.22 1.34 0 2.04-.9 2.04-2.18v-5.76h2.32v7.96c0 .8.06 1.42.1 1.78h-2.22a7 7 0 0 1-.08-1.08m7.523 1.08h-2.32v-14.48h2.32zm2.353-2.64c0-1.74 1.28-2.7 2.94-2.94l2.5-.38c.56-.08.72-.36.72-.7 0-.82-.56-1.48-1.84-1.48-1.22 0-1.9.78-2 1.76l-2.12-.48c.18-1.68 1.7-3.18 4.1-3.18 3 0 4.14 1.7 4.14 3.64v4.84c0 .88.1 1.46.12 1.56h-2.16c-.02-.06-.1-.46-.1-1.24-.46.74-1.42 1.54-3 1.54-2.04 0-3.3-1.4-3.3-2.94m3.74 1.12c1.3 0 2.42-.62 2.42-2.52v-.44l-2.54.38c-.72.12-1.3.52-1.3 1.32 0 .66.5 1.26 1.42 1.26m13.205-8.28v2.36c-.26-.04-.52-.06-.76-.06-1.8 0-2.62 1.04-2.62 2.86V779h-2.32v-9.74h2.26v1.56c.46-1.06 1.54-1.68 2.82-1.68.28 0 .52.04.62.06"/><path fill="#262626" d="M730.52 809.67h6.96l-2.73-6.81h-1.5zM723.5 822l8.4-21h4.2l8.4 21h-2.1l-4.2-10.5h-8.4l-4.2 10.5zm25.507-12.33h11.34q.72 0 1.32-.27.63-.27 1.08-.72.48-.48.75-1.08.27-.63.27-1.35t-.27-1.32q-.27-.63-.75-1.08-.45-.48-1.08-.75-.6-.27-1.32-.27h-11.34zm0 10.5h12.75a4.27 4.27 0 0 0 3.06-1.26q.6-.6.93-1.38t.33-1.68-.33-1.68q-.33-.81-.93-1.38-.6-.6-1.38-.93a4 4 0 0 0-1.68-.36h-12.75zm-2.1 1.83v-21h13.44q1.08 0 2.04.42t1.68 1.14q.72.69 1.11 1.65.42.96.42 2.04 0 1.14-.45 2.13t-1.2 1.71q1.74.66 2.85 2.22 1.11 1.53 1.11 3.54 0 1.26-.48 2.4-.48 1.11-1.32 1.95t-1.98 1.32q-1.11.48-2.37.48zm43.343-6.33h2.22q-.03.09-.09.21-.03.09-.06.21-.03.09-.09.21l-.06.18q-1.2 2.79-3.69 4.35-2.46 1.56-5.85 1.56-3.57 0-6.12-1.71-2.52-1.71-3.63-4.74-.36-.99-.57-2.1-.18-1.14-.18-2.37t.18-2.34q.21-1.14.57-2.13 1.11-3.03 3.63-4.74 2.55-1.71 6.12-1.71 3.39 0 5.85 1.56 2.49 1.56 3.69 4.35.03.09.06.21.06.09.09.21.03.09.06.21.06.09.09.18h-2.22l-.18-.36q-.09-.21-.18-.39-1.08-1.98-2.97-3.06-1.86-1.08-4.29-1.08-2.61 0-4.59 1.23-1.95 1.23-2.97 3.51-.39.93-.63 2.04-.21 1.08-.21 2.31t.21 2.34q.24 1.08.63 2.01 1.02 2.28 2.97 3.51 1.98 1.23 4.59 1.23 2.43 0 4.29-1.08 1.89-1.08 2.97-3.06l.18-.36q.09-.21.18-.39m8.559 4.5h8.4q4.23 0 6.3-2.22 2.1-2.22 2.1-6.45t-2.1-6.45q-2.07-2.22-6.3-2.22h-8.4zm-2.1 1.83v-21h10.5q2.88 0 4.89.87 2.01.84 3.24 2.28 1.26 1.44 1.8 3.36.57 1.89.57 3.99t-.57 4.02a8.56 8.56 0 0 1-1.8 3.33q-1.23 1.44-3.24 2.31-2.01.84-4.89.84zm25.195 0v-21h14.7v1.83h-12.6v7.77h10.5v1.8h-10.5v7.77h12.6V822zm18.895-21h14.7v1.83h-12.6v7.77h10.5v1.8h-10.5v9.6h-2.1zm27.505 11.4v-1.8h10.08V822h-2.01v-3.51a9.44 9.44 0 0 1-3.42 2.91q-2.04 1.02-4.65 1.02-3.42 0-5.88-1.71-2.43-1.74-3.51-4.74-.36-.99-.54-2.1-.18-1.14-.18-2.37t.18-2.34q.18-1.14.54-2.13 1.08-3 3.51-4.71 2.46-1.74 5.88-1.74 3.21 0 5.55 1.53 2.34 1.5 3.51 4.17.12.27.21.51t.18.51h-2.13q-.12-.27-.24-.51l-.24-.48q-1.05-1.86-2.82-2.88t-4.02-1.02a8.3 8.3 0 0 0-2.58.39q-1.17.36-2.16 1.08-.96.72-1.71 1.77a8.5 8.5 0 0 0-1.14 2.34q-.24.78-.39 1.65-.12.87-.12 1.86 0 1.29.24 2.43t.66 2.1q.99 2.19 2.85 3.39 1.86 1.17 4.35 1.17 1.65 0 3.06-.54a7.25 7.25 0 0 0 2.49-1.62q1.05-1.08 1.68-2.58.66-1.53.81-3.45zm34.723-11.4h2.1v21h-2.1v-9.6h-16.8v9.6h-2.1v-21h2.1v9.6h16.8zm7.194 21v-21h2.1v21zm7.214-10.5h2.1v.54l.06.54q.09 1.08.33 2.01.27.93.69 1.77 1.08 2.01 2.97 3.12t4.35 1.11 4.35-1.11 2.97-3.12q.51-1.02.78-2.22.3-1.23.3-2.64V801h2.1v10.5q0 1.38-.24 2.61t-.69 2.31q-1.17 2.82-3.66 4.41t-5.91 1.59-5.91-1.59-3.66-4.41q-.36-.87-.6-1.83-.21-.96-.3-2.01 0-.27-.03-.54zm25.194-10.5h2.1v12.6l10.02-12.57h2.52l-6.27 7.83 10.53 13.14h-2.52l-9.27-11.55-5.01 6.24V822h-2.1zm23.114 21v-21h2.1v19.17h12.6V822zm18.895 0v-21h3.36l7.14 8.94 7.142-8.94h3.36v21h-2.1v-18.9h-.42l-7.982 9.96-7.98-9.96h-.42V822zm25.192 0v-21h3.54l15.12 18.9h.24V801h2.1v21h-3.54l-15.12-18.9h-.24V822zM734 853.59q1.83 0 3.36-.63a7.5 7.5 0 0 0 2.67-1.8q1.11-1.2 1.74-2.88t.63-3.78-.63-3.78-1.74-2.85a7.3 7.3 0 0 0-2.67-1.83q-1.53-.63-3.36-.63t-3.39.63q-1.53.63-2.64 1.83-1.11 1.17-1.74 2.85t-.63 3.78.63 3.78 1.74 2.88q1.11 1.17 2.64 1.8 1.56.63 3.39.63m0 1.83q-2.37 0-4.32-.78a9.6 9.6 0 0 1-3.3-2.19q-1.38-1.44-2.13-3.45-.75-2.04-.75-4.5t.75-4.47q.75-2.04 2.13-3.45a9.4 9.4 0 0 1 3.3-2.22q1.95-.78 4.32-.78t4.29.78q1.95.78 3.33 2.22 1.38 1.41 2.13 3.45.75 2.01.75 4.47t-.75 4.5q-.75 2.01-2.13 3.45-1.38 1.41-3.33 2.19-1.92.78-4.29.78m14.723-.42v-21h13.44q1.08 0 2.04.42t1.68 1.14q.72.69 1.11 1.65.42.96.42 2.04t-.42 2.04q-.39.96-1.11 1.68-.72.69-1.68 1.11t-2.04.42h-11.34V855zm2.1-12.33h11.34q.72 0 1.32-.27.63-.27 1.08-.72.48-.48.75-1.08.27-.63.27-1.35t-.27-1.32q-.27-.63-.75-1.08-.45-.48-1.08-.75-.6-.27-1.32-.27h-11.34zm35.07 12.75-1.62-1.65q-.96.39-2.01.6t-2.25.21q-3.36 0-5.76-1.59t-3.51-4.41q-.39-.99-.6-2.1-.21-1.14-.21-2.4t.21-2.37q.21-1.14.6-2.13 1.11-2.82 3.51-4.41t5.76-1.59q1.68 0 3.12.42 1.47.39 2.64 1.17a9 9 0 0 1 3.54 4.41q.39.99.6 2.13.21 1.11.21 2.37 0 2.88-1.08 5.1-1.05 2.22-2.94 3.57l1.23 1.23zm-7.11-7.14 1.41-1.41 4.56 4.53q1.56-1.11 2.43-2.97.9-1.86.9-4.35 0-.96-.15-1.8-.12-.87-.36-1.65-.87-2.52-2.85-3.9-1.98-1.41-4.71-1.41-2.7 0-4.71 1.41-1.98 1.38-2.82 3.9-.27.78-.42 1.65-.12.84-.12 1.8t.12 1.83q.15.84.42 1.62.84 2.52 2.82 3.9 2.01 1.38 4.71 1.38.78 0 1.47-.09.72-.12 1.38-.36zm17.653-5.61h11.34q.72 0 1.32-.27.63-.27 1.08-.72.48-.48.75-1.08.27-.63.27-1.35t-.27-1.32q-.27-.63-.75-1.08-.45-.48-1.08-.75-.6-.27-1.32-.27h-11.34zm-2.1 12.33v-21h13.44q1.08 0 2.04.42t1.68 1.14q.72.69 1.11 1.65.42.96.42 2.04t-.42 2.04q-.39.96-1.11 1.68-.72.69-1.68 1.11t-2.04.42h-.54l6 10.5h-2.25l-6-10.5h-8.55V855zm28.81-12.03 5.31 1.08q.75.15 1.92.45t2.25.9q1.11.6 1.89 1.59t.78 2.52q0 1.35-.63 2.46-.63 1.08-1.83 1.86-1.17.78-2.85 1.17-1.68.42-3.78.42-2.46 0-4.89-.6-2.43-.63-4.44-1.77l-.48-.24v-2.19l1.38.78.42.24.42.18q1.68.81 3.63 1.26 1.98.45 3.96.45 3.36 0 5.28-1.08t1.92-2.94q0-.18-.03-.33 0-.18-.03-.33-.27-1.05-1.53-1.74-1.23-.69-3.75-1.2l-5.28-1.08q-3.42-.69-4.92-1.95-1.47-1.29-1.47-3.42 0-1.38.63-2.49t1.86-1.89q1.14-.75 2.7-1.11 1.59-.39 3.51-.39 2.28 0 4.26.69 2.01.66 3.87 1.83l-.03 2.22-.96-.6q-.21-.15-.42-.27-.18-.12-.39-.21-1.47-.84-3.03-1.29-1.53-.48-3.3-.48-1.65 0-2.97.33-1.32.3-2.25.9-.81.51-1.2 1.2t-.39 1.56v.45q.03.36.21.78.18.39.69.81.51.39 1.44.78.96.36 2.52.69m15.192-8.97h16.8v1.83h-7.35V855h-2.1v-19.17h-7.35zm21.005 0h2.07v10.5q0 1.41.27 2.64.27 1.2.78 2.22 1.05 2.01 2.91 3.12t4.26 1.11q2.43 0 4.29-1.11t2.88-3.12q.51-1.02.78-2.22.3-1.23.3-2.64V834h2.04v10.5q0 1.32-.21 2.52-.21 1.17-.63 2.22-.54 1.44-1.47 2.61-.9 1.14-2.13 1.95-1.2.78-2.67 1.2t-3.18.42q-1.68 0-3.18-.42-1.47-.42-2.7-1.2-1.2-.81-2.1-1.95-.9-1.17-1.47-2.61-.42-1.05-.63-2.22-.21-1.2-.21-2.52zm41.643 0h2.13l-8.4 21h-2.13l-8.4-21h2.13l7.32 18.33zm7.034 0h2.1v18.9h.42l7.98-9.96 7.98 9.96h.42V834h2.1v21h-3.36l-7.14-8.94-7.14 8.94h-3.36zm42.588 0h2.52l-8.4 10.5 8.4 10.5h-2.52l-7.14-8.94-7.14 8.94h-2.52l8.4-10.5-8.4-10.5h2.52l7.14 8.94zm22.421 0h2.52l-8.61 10.77V855h-2.1v-10.23l-8.61-10.77h2.52l7.14 8.94zm5.061 21v-3.54l18.9-15.12v-.24h-18.9V834h21v3.54l-18.9 15.12v.24h18.9v2.1zM723.5 888v-21h2.1v21zm6.298 0v-5.49q0-1.53.78-2.52t1.86-1.59 2.22-.9q1.17-.3 1.92-.45l5.19-1.08q1.2-.24 2.01-.54.84-.3 1.35-.6.54-.3.81-.6.3-.33.45-.63.12-.33.12-.6.03-.3.03-.54 0-.87-.39-1.56-.36-.69-1.17-1.2-.93-.6-2.22-.9-1.29-.33-2.91-.33-1.71 0-3.24.48-1.53.45-2.94 1.29-.21.09-.42.21-.18.12-.39.27l-.93.6-.06-2.22q.18-.12.33-.21.18-.09.36-.21 1.68-.99 3.48-1.53 1.8-.57 3.81-.57 1.89 0 3.42.39 1.56.36 2.7 1.11 1.2.78 1.8 1.89.63 1.11.63 2.49 0 2.13-1.47 3.42-1.44 1.26-4.8 1.95l-5.19 1.08q-2.01.42-3.18.96-1.14.51-1.65 1.26-.18.3-.27.66-.09.33-.09.72v3.66h15.63V888zm22.791 0v-1.83h10.65a4.27 4.27 0 0 0 3.06-1.26q.6-.6.93-1.38t.33-1.68-.33-1.68q-.33-.81-.93-1.38-.6-.6-1.38-.93a4 4 0 0 0-1.68-.36h-8.55v-1.83h9.45q.69 0 1.32-.27t1.08-.72q.48-.48.75-1.08.27-.63.27-1.35t-.27-1.32q-.27-.63-.75-1.08-.45-.48-1.08-.75t-1.32-.27h-11.55V867h11.55q1.08 0 2.04.42t1.65 1.14q.72.69 1.14 1.65t.42 2.04q0 1.47-.72 2.67a5.04 5.04 0 0 1-1.92 1.86q1.2.87 1.92 2.19.72 1.29.72 2.88 0 1.26-.48 2.4-.48 1.11-1.32 1.95t-1.98 1.32q-1.11.48-2.37.48zm24.965-6.15h9.78v-12.21zm-3.96 1.8 13.32-16.65h2.52v14.85h2.79v1.8h-2.79V888h-2.1v-4.35zm22.821 4.35v-1.83h12.72q.9 0 1.68-.33t1.35-.93q.6-.6.93-1.38.36-.78.36-1.68t-.36-1.68q-.33-.81-.93-1.38-.57-.6-1.35-.93a4 4 0 0 0-1.68-.36h-12.72V867h16.8v1.83h-14.7v6.84h10.62q1.26 0 2.37.51 1.14.48 1.98 1.32.84.81 1.32 1.95.48 1.11.48 2.4 0 1.26-.48 2.4-.48 1.11-1.32 1.95t-1.98 1.32q-1.11.48-2.37.48zm41.206-17.37q-.18-.12-.36-.21-.18-.12-.33-.24-.24-.12-.45-.24t-.42-.21q-1.29-.66-2.43-.93t-2.46-.27q-1.95 0-3.78.69-1.8.66-3.21 1.86-.78.72-1.59 1.83-.78 1.11-1.14 2.76-.09.45-.15.96t-.06 1.08v.48q.03.24.06.51l1.2-.69.72-.39q.36-.18.69-.36a18.5 18.5 0 0 1 2.43-1.11q1.17-.39 2.37-.57t2.82-.18 3.18.45 2.79 1.14q1.5.84 2.25 2.04t.75 2.73q0 1.23-.6 2.34-.57 1.08-1.68 1.98-1.08.87-2.16 1.29t-1.56.54q-.93.27-1.89.39-.93.12-1.89.12-1.83 0-3.54-.48-1.68-.48-3.09-1.41a9.6 9.6 0 0 1-2.73-2.58q-1.08-1.56-1.56-3.48l-.03-.21-.12-.72q-.06-.51-.12-.93-.03-.45-.03-.9 0-1.53.33-2.79.33-1.29.84-2.28.54-1.02 1.17-1.77.66-.78 1.26-1.32 1.65-1.41 3.75-2.19t4.32-.78q1.02 0 1.89.15.9.12 1.71.39.81.24 1.56.6.78.36 1.53.81l.3.18q.15.09.3.21zm-15.93 10.05q.42 1.29 1.23 2.34.84 1.05 2.01 1.83 1.23.78 2.7 1.2 1.5.42 3.09.42.84 0 1.68-.12.87-.12 1.71-.33.6-.15 1.38-.51.81-.36 1.53-.87.75-.54 1.23-1.26.51-.72.51-1.62 0-.3-.06-.66t-.27-.75q-.21-.42-.63-.81-.39-.42-1.08-.81-1.05-.57-2.43-.96-1.35-.42-2.76-.42-1.65 0-2.82.21-1.14.18-2.28.63-.6.24-1.23.54-.6.3-1.32.72-.15.06-.3.15l-.3.18zM845.983 867h18.06l-16.8 21h-2.52l15.33-19.17h-14.07zm26.28 8.67h6.21l.36-.06q1.17-.24 1.95-1.17t.78-2.19-.78-2.19a3.36 3.36 0 0 0-1.95-1.17q-.18-.03-.36-.03-.15-.03-.33-.03h-5.88q-.18 0-.36.03-.15 0-.33.03-1.17.24-1.95 1.17t-.78 2.19q0 .72.27 1.35.27.6.72 1.08.48.45 1.08.72.63.27 1.35.27m-1.41 10.5h8.7q.24 0 .48-.03.27-.03.51-.06.72-.18 1.32-.57.63-.39 1.05-.93.45-.57.69-1.26.27-.72.27-1.47 0-.9-.33-1.68-.33-.81-.93-1.38-.6-.6-1.38-.93a4 4 0 0 0-1.68-.36h-8.7q-.24 0-.51.03-.24.03-.48.09-.72.15-1.35.57-.6.39-1.05.96-.42.54-.69 1.23-.24.69-.24 1.47a4.27 4.27 0 0 0 1.26 3.06q.6.6 1.38.93t1.68.33m-2.19-10.08q-.3-.3-.57-.63-.24-.33-.45-.69-.21-.39-.36-.78-.12-.42-.21-.84-.03-.24-.06-.45v-.45q0-1.08.42-2.04t1.11-1.65q.72-.72 1.68-1.14t2.04-.42h5.88q1.08 0 2.04.42t1.65 1.14q.72.69 1.14 1.65t.42 2.04q0 1.14-.45 2.13t-1.2 1.71q1.74.66 2.85 2.22 1.11 1.53 1.11 3.54 0 1.26-.48 2.4-.48 1.11-1.32 1.95t-1.98 1.32q-1.11.48-2.37.48h-8.7q-1.26 0-2.4-.48a6.22 6.22 0 0 1-3.27-3.27q-.48-1.14-.48-2.4 0-2.01 1.11-3.54 1.11-1.56 2.85-2.22m24.114 8.28.36.24q.18.09.36.21l.42.24q.21.12.42.21 1.29.66 2.43.93t2.46.27q1.95 0 3.75-.66 1.83-.69 3.24-1.89.78-.72 1.56-1.83.81-1.11 1.17-2.76.09-.45.15-.96t.06-1.08q0-.24-.03-.48 0-.24-.03-.51l-1.2.69q-.39.21-.75.39l-.66.36a18.5 18.5 0 0 1-2.43 1.11q-1.17.39-2.37.57t-2.82.18-3.18-.45-2.79-1.14q-1.5-.84-2.25-2.04t-.75-2.73q0-1.23.57-2.31.6-1.11 1.71-2.01 1.11-.87 2.16-1.29 1.08-.42 1.56-.54.93-.27 1.86-.39.96-.12 1.92-.12 1.83 0 3.51.48 1.71.48 3.15 1.41 1.65 1.05 2.7 2.61a10.2 10.2 0 0 1 1.56 3.45l.03.21.12.72q.09.51.12.96.03.42.03.87 0 1.53-.33 2.82-.33 1.26-.87 2.28-.51.99-1.17 1.77-.63.75-1.23 1.29-1.65 1.41-3.75 2.19t-4.32.78q-1.02 0-1.92-.15-.87-.12-1.68-.36-.81-.27-1.59-.63-.75-.36-1.5-.81l-.3-.18q-.15-.09-.3-.21zm15.93-10.05q-.42-1.29-1.26-2.34-.81-1.05-1.98-1.83-1.23-.78-2.73-1.2-1.47-.42-3.06-.42-.84 0-1.71.12-.84.12-1.68.33a8.9 8.9 0 0 0-2.94 1.41q-.72.51-1.23 1.23-.48.72-.48 1.62 0 .3.06.66t.27.78q.21.39.6.81.42.39 1.11.78 1.05.57 2.4.99 1.38.39 2.79.39 1.65 0 2.79-.18 1.17-.21 2.31-.66.6-.24 1.2-.54.63-.3 1.35-.72.15-.06.3-.15l.3-.18zm16.913 12.27q1.83 0 3.36-.63a7.5 7.5 0 0 0 2.67-1.8q1.11-1.2 1.74-2.88t.63-3.78-.63-3.78-1.74-2.85a7.3 7.3 0 0 0-2.67-1.83q-1.53-.63-3.36-.63t-3.39.63q-1.53.63-2.64 1.83-1.11 1.17-1.74 2.85t-.63 3.78.63 3.78 1.74 2.88q1.11 1.17 2.64 1.8 1.56.63 3.39.63m0 1.83q-2.37 0-4.32-.78a9.6 9.6 0 0 1-3.3-2.19q-1.38-1.44-2.13-3.45-.75-2.04-.75-4.5t.75-4.47q.75-2.04 2.13-3.45a9.4 9.4 0 0 1 3.3-2.22q1.95-.78 4.32-.78t4.29.78q1.95.78 3.33 2.22 1.38 1.41 2.13 3.45.75 2.01.75 4.47t-.75 4.5q-.75 2.01-2.13 3.45-1.38 1.41-3.33 2.19-1.92.78-4.29.78m19.674-16.17q0 1.26.96 2.22.96.93 2.43 1.14l.36.06h3.87l.36-.06q1.47-.21 2.43-1.14.96-.96.96-2.22t-.96-2.19q-.96-.96-2.43-1.17-.18-.03-.36-.03-.18-.03-.36-.03h-3.15q-.18 0-.36.03-.18 0-.36.03-1.47.21-2.43 1.17-.96.93-.96 2.19m9.69 13.56-7.95-8.28q-1.68.21-2.91 1.17-1.2.96-1.5 2.34-.06.18-.09.39v.42q0 1.41.93 2.52.96 1.08 2.46 1.53.42.15.87.21t.93.06h5.55q.18 0 .36-.03.36-.03.69-.12.36-.09.66-.21m-2.07 2.19h-5.64a.6.6 0 0 0-.18-.03h-.18q-1.38-.12-2.58-.66t-2.1-1.35a6.3 6.3 0 0 1-1.38-1.86 5.2 5.2 0 0 1-.51-2.25v-.33q.03-.18.03-.33.24-1.77 1.53-3.12 1.29-1.38 3.21-1.98-.81-.63-1.32-1.44-.48-.81-.63-1.77l-.06-.3v-.33q0-1.05.48-1.98t1.29-1.62q.81-.72 1.89-1.14 1.08-.45 2.34-.51h3.93v.03q1.2.06 2.25.51 1.08.42 1.86 1.14.81.69 1.26 1.62.45.9.45 1.95 0 .18-.03.36 0 .15-.03.33-.15.9-.66 1.71-.48.81-1.26 1.41-.75.6-1.74.99-.99.36-2.1.42v.03h-3.03l6.87 7.17q.6-.57.93-1.29t.33-1.53v-.15h2.19v.15q0 1.23-.57 2.34-.54 1.08-1.5 1.92l1.83 1.89h-3l-.69-.72q-.75.33-1.62.54-.84.18-1.74.18zm11.598 0v-21h14.7v1.83h-12.6v7.77h10.5v1.8h-10.5v7.77h12.6V888zm7.77-26.7h2.49l-3.33 4.2h-2.52zm11.126 26.7v-21h14.7v1.83h-12.6v7.77h10.5v1.8h-10.5v7.77h12.6V888zm4.41-26.7h2.49l3.36 4.2h-2.49zm16.792 16.17q0 2.1.63 3.78t1.74 2.88q1.11 1.17 2.64 1.8 1.56.63 3.39.63 2.67 0 4.65-1.26 1.98-1.29 2.97-3.63h2.22q-.54 1.56-1.47 2.82-.9 1.23-2.16 2.1t-2.85 1.35q-1.56.45-3.36.45-2.37 0-4.32-.78a9.6 9.6 0 0 1-3.3-2.19q-1.38-1.44-2.13-3.45-.75-2.04-.75-4.5t.75-4.47q.75-2.04 2.13-3.45a9.4 9.4 0 0 1 3.3-2.22q1.95-.78 4.32-.78 1.8 0 3.36.48 1.59.45 2.85 1.32a8.7 8.7 0 0 1 2.16 2.13q.93 1.23 1.47 2.79h-2.22q-.99-2.34-2.97-3.6-1.98-1.29-4.65-1.29-1.83 0-3.39.63-1.53.63-2.64 1.83-1.11 1.17-1.74 2.85t-.63 3.78m7.2 14.79.42-1.35q.15.06.27.06.12.03.24.03.36 0 .51-.09.18-.06.24-.15.15-.12.21-.27t.06-.36v-.03h-1.5v-1.89h1.41v.51h1.5l-.03 1.05v.54q0 .09-.03.18 0 .09-.03.18-.06.3-.21.57a2.3 2.3 0 0 1-.45.57l-.06.06q-.06.06-.15.09a.5.5 0 0 1-.12.09q-.15.09-.3.15t-.33.12h-.09q-.03.03-.06.03h-.12q-.03.03-.06.03h-.18q-.09.03-.21.03-.24 0-.48-.06-.24-.03-.45-.09m21.3-16.59h6.96l-2.73-6.81h-1.5zm-7.02 12.33 8.4-21h4.2l8.4 21h-2.1l-4.2-10.5h-8.4l-4.2 10.5zm7.05-26.7h2.49l3.36 4.2h-2.49zM723.5 900h2.07v10.5q0 1.41.27 2.64.27 1.2.78 2.22 1.05 2.01 2.91 3.12t4.26 1.11q2.43 0 4.29-1.11t2.88-3.12q.51-1.02.78-2.22.3-1.23.3-2.64V900h2.04v10.5q0 1.32-.21 2.52-.21 1.17-.63 2.22-.54 1.44-1.47 2.61-.9 1.14-2.13 1.95-1.2.78-2.67 1.2t-3.18.42q-1.68 0-3.18-.42-1.47-.42-2.7-1.2-1.2-.81-2.1-1.95-.9-1.17-1.47-2.61-.42-1.05-.63-2.22-.21-1.2-.21-2.52zm7.38-5.7h2.49l3.36 4.2h-2.49zm41.163 15.99q0 1.38-.33 2.7-.3 1.32-.96 2.4-.66 1.05-1.62 1.71-.96.63-2.28.63-1.38 0-2.19-.78-.78-.81-.96-1.83h-.15q-.54 1.11-1.59 1.86t-2.64.75q-2.28 0-3.54-1.53-1.23-1.53-1.23-4.05 0-1.98.78-3.48a5.9 5.9 0 0 1 2.19-2.4q1.44-.87 3.39-.87 1.32 0 2.58.24 1.29.21 2.01.48l-.3 6.09q-.03.54-.03.78v.3q0 1.56.54 2.07.57.51 1.32.51.93 0 1.56-.75.66-.78.99-2.04.36-1.29.36-2.82 0-2.79-1.14-4.71a7.37 7.37 0 0 0-3.09-2.97q-1.95-1.02-4.44-1.02-2.55 0-4.53.81t-3.33 2.28q-1.32 1.47-2.01 3.48-.69 1.98-.69 4.38 0 2.94 1.05 5.01 1.05 2.04 3.06 3.12 2.04 1.05 4.98 1.05 1.83 0 3.48-.42 1.68-.39 2.97-.87v2.04q-1.29.54-2.91.87-1.59.36-3.54.36-3.54 0-6.06-1.32t-3.87-3.78q-1.32-2.49-1.32-5.97 0-2.79.87-5.16.87-2.4 2.52-4.14 1.65-1.77 3.99-2.73 2.37-.99 5.34-.99 2.34 0 4.29.75 1.98.72 3.42 2.13 1.47 1.38 2.25 3.36.81 1.98.81 4.47m-15.15 1.92q0 1.92.75 2.79.78.87 2.07.87 1.68 0 2.4-1.26.75-1.26.87-3.27l.18-3.75q-.39-.12-.99-.21t-1.23-.09q-1.47 0-2.37.72t-1.29 1.86q-.39 1.11-.39 2.34m27.876-9.51-.06-.21-.39-.99-.21-.57-.09-.21-.03-.12v-2.1h2.1v2.1l-.03.12-.09.21-.21.57-.39.99-.06.21zm7.164 18.3v-21h6.3v1.83h-4.2v17.34h4.2V921zm13.54 0v-1.83h4.2v-17.34h-4.2V900h6.3v21zm10.539 0v-2.1h2.1v2.1zm0-4.2V900h2.1v16.8zm10.498-16.2v-2.1h2.1v.66q0 .39-.06.84-.03.42-.12.9-.03.21-.09.45l-.12.48q-.06.21-.12.45-.06.21-.15.42h-1.11q.15-.48.27-.9t.21-.81v-.09a.2.2 0 0 0 .03-.09.2.2 0 0 0 .03-.09q0-.06.03-.12zm-4.2 0v-2.1h2.1v.66q0 .39-.06.84-.03.42-.12.9-.03.21-.09.45l-.12.48q-.06.21-.12.45-.06.21-.15.42h-1.11q.15-.48.27-.9t.21-.81v-.09a.2.2 0 0 0 .03-.09.2.2 0 0 0 .03-.09q0-.06.03-.12zm9.047 20.4v-2.1h2.1v2.1z"/></svg>